<svg xmlns="http://www.w3.org/2000/svg" viewBox="0 0 3433.31 1351.15"><svg viewBox="0 0 923.13 1348.15" height="1348.15" width="923.13" x="0"><g transform="matrix(1 0 0 1 0 0)"><defs><style>.cls-1,.cls-13,.cls-15,.cls-2{fill:#fff;}.cls-1,.cls-15{stroke:#3f4d90;}.cls-1,.cls-10,.cls-4{stroke-linejoin:round;}.cls-1,.cls-10,.cls-15,.cls-4{stroke-width:5px;}.cls-14,.cls-2{stroke:#d8baa3;stroke-width:6px;}.cls-14,.cls-15,.cls-2{stroke-miterlimit:10;}.cls-3{fill:#ffb000;}.cls-10,.cls-14,.cls-4{fill:none;}.cls-10,.cls-4{stroke:#fff;}.cls-5{fill:#c36f0b;}.cls-6{fill:#3f4d79;}.cls-7{fill:#ffc033;}.cls-8{fill:#d8baa3;}.cls-9{fill:#f0e1d4;}.cls-10{stroke-linecap:round;}.cls-11{fill:#b65a18;}.cls-12{fill:#722d54;}</style></defs><g id="Layer_2" data-name="Layer 2"><g id="Слой_1" data-name="Слой 1"><g id="_4" data-name="4"><g id="CHAIR"><rect class="cls-1" x="345.05" y="843.19" width="405.53" height="24.68"/><path class="cls-2" d="M803.79,790.2c0-226.72,112.59-351.48,112.59-351.48H581.7S469.11,563.48,469.11,790.2Z"/><path class="cls-2" d="M348.34,790.2H803.79a0,0,0,0,1,0,0v0a53,53,0,0,1-53,53H295.34a0,0,0,0,1,0,0v0a53,53,0,0,1,53-53Z"/><path class="cls-1" d="M746.39,1338h0a5.71,5.71,0,0,1-5.61-4.63L651.67,867.88h51.08l49.32,463.8A5.71,5.71,0,0,1,746.39,1338Z"/><path class="cls-1" d="M350.08,1338h0a5.71,5.71,0,0,0,5.61-4.63L444.8,867.88H393.73l-49.33,463.8A5.71,5.71,0,0,0,350.08,1338Z"/></g><g id="MAN"><g id="LEFT_HAND" data-name="LEFT HAND"><path class="cls-3" d="M250.79,580.62c137,33,205.64-4.18,218.08-26.86,0,0-6.85-42.58-1.79-108.59s-5.58-213.85-5.58-213.85c-30.19,11.61-74.37,30.19-87.52,68.89s-15.22,144.73-16,190.06c0,0-70.29,24.11-101.78,40.57a19,19,0,0,0-10,19.7Z"/><path class="cls-4" d="M386,490.27s-13.65-5.42-40.78.57"/><g id="LEFT_HAND-2" data-name="LEFT HAND"><path class="cls-5" d="M258.48,556.46a25.06,25.06,0,0,1-10.1,24.36l-1.57,1.11c-10.73,7.41-31.31,13.4-36.19,13.07s-34.88-5.88-34.88-5.88-1.07-4.09,3.32-9.48,36.55-1.11,24.79-12.94c-5.23-5.26-31.28,6.61-42.61,19.77s-16.71,2.73-16.71,2.73,10.85-24.38,14.72-28.79,29.75-23.14,47.24-26c8.34-1.36,20.06-.59,31.7,1.43a24.94,24.94,0,0,1,20.29,20.62Z"/></g></g><g id="LEGS"><path id="LEG" class="cls-5" d="M333.42,1294.82c11.06-2.5,26.35-7.86,34.87-19.15l4.84-26.11s-31.8,3.62-60.85.84l5.63,34.17A12.87,12.87,0,0,0,333.42,1294.82Z"/><g id="SHOE"><path class="cls-3" d="M204,1326.79c.17,1.94,3.67,11.2,3.67,11.2l178.87-6.06v-10c0-16.74-5.69-31.19-8.7-37.47-4.64-9.69-11.08-7.27-11.08-7.27s-17.49,17.1-37.11,17.1c-3.78,0-6.49-2-8.43-4.92a23.32,23.32,0,0,1-2.68-5.82,47.28,47.28,0,0,1-1.72-8.2,7.36,7.36,0,0,0-10.67-5.63c-7.7,4-17.05,12.82-42.09,26.34-1.25.68-2.55,1.37-3.89,2.08C229.72,1314.16,204.34,1308.2,204,1326.79Z"/><path class="cls-6" d="M224.13,1346.84c-5.18,0-11.5-2.34-14.89-6.14a21.28,21.28,0,0,1-4.65-18.15h.14a16.82,16.82,0,0,0,16.14,13.68l155.07-4.54c4.81,0,8.93-3.33,10.61-8v10.42c0,7.05-5.11,12.76-11.42,12.76Z"/><path class="cls-6" d="M257.33,1299.6a49.37,49.37,0,0,1,38.79,35.4l7.14-.25a56.38,56.38,0,0,0-36.77-40l-2.42,1.31c-1.25.68-2.55,1.37-3.89,2.08Q258.76,1298.91,257.33,1299.6Z"/><path class="cls-6" d="M239.64,1306.46v.93a46.81,46.81,0,0,1,42.84,28.07l7.42-.25a53.9,53.9,0,0,0-37.66-33.29A127.92,127.92,0,0,1,239.64,1306.46Z"/></g><path id="LEG-2" data-name="LEG" class="cls-5" d="M550.74,1294.82c11.06-2.5,25.34-7.86,33.86-19.15l2.85-28.28s-29.83,2.61-58.88-.18l6.67,37.36A12.86,12.86,0,0,0,550.74,1294.82Z"/><g id="SHOE-2" data-name="SHOE"><path class="cls-7" d="M431.44,1326.79c.17,1.94,3.67,11.2,3.67,11.2l168.76-6.06v-10c0-16.74-5.69-31.19-8.69-37.47-4.65-9.69-11.08-9.29-11.08-9.29s-17.5,19.12-37.12,19.12c-3.78,0-6.49-2-8.42-4.92a23,23,0,0,1-2.68-5.82,46.36,46.36,0,0,1-1.72-8.2,7.37,7.37,0,0,0-10.68-5.63c-7.7,4-6.94,12.82-32,26.34-1.25.68-2.55,1.37-3.89,2.08C457.15,1314.16,431.77,1308.2,431.44,1326.79Z"/><path class="cls-6" d="M451.56,1346.84c-5.18,0-11.5-2.34-14.89-6.14a21.28,21.28,0,0,1-4.65-18.15h.14a16.82,16.82,0,0,0,16.14,13.68l145-4.54c4.81,0,8.92-3.33,10.6-8v10.42c0,7.05-5.11,12.76-11.42,12.76Z"/><path class="cls-6" d="M484.76,1299.6a49.37,49.37,0,0,1,38.79,35.4l7.14-.25a56.38,56.38,0,0,0-36.77-40l-2.42,1.31c-1.25.68-2.55,1.37-3.89,2.08Q486.19,1298.91,484.76,1299.6Z"/><path class="cls-6" d="M467.07,1306.46v.93a46.81,46.81,0,0,1,42.84,28.07l7.42-.25a53.9,53.9,0,0,0-37.66-33.29A127.92,127.92,0,0,1,467.07,1306.46Z"/></g><path class="cls-8" d="M596.66,841s72.2,102.85,8.83,403c0,0-33.21,11.14-86.14,3,0,0-71.66-291.85-81.41-418.31-17.58-.52-35.79-.84-54.56-.84,0,0,75.73,154.79,2.22,421.62,0,0-54.15,3.87-82.62-.19,0,0-87.39-436.27-81.74-476.84C228,723.61,381.82,661.26,478.58,652.47l216.56-1.34s55.51,56,32.34,135.45C710.1,846.19,596.66,841,596.66,841Z"/></g><g id="TORSO"><path class="cls-9" d="M710.92,671.71a18.86,18.86,0,0,0,3.18,5.85s-189.77,64.6-269.63-16.67C531.24,691.26,673.63,676.38,710.92,671.71Z"/><path class="cls-3" d="M630.82,178.72c9.86,8.1,131.38,78.53,148.79,88.21s-81.22,222.13-78.15,297.93c2.28,56.26,17.72,105.62,17.72,105.62s-174.09,25.63-274.71-9.59c0,0,20.9-31,9.29-95.2C444.35,513.6,425.2,369,430.54,313.37c1.94-20.13,5.42-70.05,31-82.05,38.7-18.17,65.4-34,65.4-34Z"/><path class="cls-4" d="M453.75,568.69c-9.41-52.09-28-155.21-14.11-225"/></g><g id="RIGHT_HAND" data-name="RIGHT HAND"><path class="cls-3" d="M779.61,267.51c51.86,45.67,56.8,234.38,24,268.77-64.24,67.34-258.15,66.58-258.15,66.58s-20.29-2.93-8.68-50.14c0,0,143.76-72.6,157.69-72.17,0,0-2.32-134.68,27.09-174.92S773.51,262.14,779.61,267.51Z"/><path class="cls-10" d="M706.65,586.88c-76.12,19.35-161.19,17-161.19,17"/><path class="cls-4" d="M536.78,551.71s76.42-42.9,157.69-72.17c0,0,3.38-103.2,11.93-133.48"/><g id="ARM"><path class="cls-5" d="M539.75,552s-43.4-16.39-57.43-8.15c-15.35,9-43.77,37.77-45.43,42.61s-1.15,9.89-.85,15.09,52.3,5.11,58.46,4.75,39.93,3.29,45.63-2.9C561.07,580.71,539.75,552,539.75,552Z"/></g></g><g id="HEAD"><path id="NECK" class="cls-11" d="M622.11,110.77s-11.61,29,8.71,68c0,0-27.87,39.69-72,39.44-57-.31-31.93-20.89-31.93-20.89s8.71-13.94,7-38.9Z"/><path id="HEAD-2" data-name="HEAD" class="cls-5" d="M613.2,128c-1.16,5.42-1.33,28.82-11,35.4-12.52,8.52-49.36,21.88-77.22,11.82-3.57-1.29-21.29-53.41-20.13-71.21s1.55-80.88,41-96.75,86.68-7,99.84,39.47c5.38,19,.94,36-6.19,49.51,0,0,4.56,8.18-2.75,16.33C628.8,121.46,613.2,128,613.2,128Z"/><path id="HAIR" class="cls-12" d="M639.52,96.23c-9.28-10.49-22.06,8.16-22.06,8.16l-.18,1a24.13,24.13,0,0,1-8.66-7.93c-5.34-8.08-5.78-17.07-5.07-49.4,0,0-51.81,5.47-89.38-3.56,5.77-16.13,15.41-30.72,31.7-37.27,39.47-15.87,86.69-7,99.84,39.47C651.09,65.69,646.65,82.72,639.52,96.23Z"/><g id="COLLAR"><path class="cls-9" d="M570.83,202.87c7.22-3.35,37.15-14.25,58.3-35.67,0,0,21.11,20.47,21.3,24.11s-44.71,34.08-57.35,35.37Z"/><path class="cls-9" d="M526.94,186.43c2,3.61,7.06,12.13,21.51,16,0,0-10.58,17.28-20.39,22.7,0,0-16-7-20.35-16.12C504.83,203,526.94,186.43,526.94,186.43Z"/><path class="cls-8" d="M548.45,202.43l10.38,15.73,12-15.29,11,11.76s-15.34,7.31-44,2.07Z"/></g></g></g><g id="TABLE"><path class="cls-2" d="M0,604H544.78a20,20,0,0,1,20,20v5.3a20,20,0,0,1-20,20H1"/><polyline class="cls-13" points="429.96 1348.15 429.96 650.02 473.47 650.02 473.47 1348.13"/><polygon class="cls-9" points="429.96 663.9 429.96 650.02 473.47 650.02 473.47 698.27 429.96 663.9"/><polyline class="cls-14" points="429.96 1347.14 429.96 650.02 473.47 650.02 473.47 1347.12"/></g><g id="TABLET"><path class="cls-15" d="M447.83,604H230a18.08,18.08,0,0,1-16.31-10.28L143.28,446.6a9.26,9.26,0,0,1,8.36-13.26H369.47a18.08,18.08,0,0,1,16.31,10.28l70.41,147.14A9.26,9.26,0,0,1,447.83,604Z"/><path class="cls-9" d="M447.48,601.79H233.16A17.52,17.52,0,0,1,218,591.85L187,527l.47-.82h235l.39.81,29.65,62C457,596.23,454.07,601.79,447.48,601.79Z"/><path class="cls-1" d="M425,525.86l-39.85,69.58c-3,5.24-9.35,8.58-16.32,8.58H151c-6.82,0-11.3-5.94-8.36-11.08l38.44-67.08Z"/></g></g></g></g></g></svg><svg viewBox="0 0 633.08 1325.74" height="1325.74" width="633.08" x="923.13"><g transform="matrix(1 0 0 1 0 0)"><defs><style>.cls-1,.cls-11{fill:#fff;}.cls-1,.cls-2{stroke:#d8baa3;}.cls-1,.cls-12,.cls-13,.cls-2,.cls-8{stroke-miterlimit:10;}.cls-1,.cls-12,.cls-2{stroke-width:6px;}.cls-12,.cls-13,.cls-2,.cls-8{fill:none;}.cls-3{fill:#b65a18;}.cls-4{fill:#642648;}.cls-5{fill:#c36f0b;}.cls-6{fill:#722d54;}.cls-7{fill:#3f4d90;}.cls-10,.cls-8{stroke:#fff;}.cls-8{stroke-width:4px;}.cls-10,.cls-9{fill:#f0e1d4;}.cls-10,.cls-11{stroke-linejoin:round;stroke-width:5px;}.cls-11{stroke:#3f4d79;}.cls-12,.cls-13{stroke:#722d54;}.cls-13{stroke-width:3px;}</style></defs><g id="Layer_2" data-name="Layer 2"><g id="Слой_1" data-name="Слой 1"><g id="_1" data-name="1"><g id="CHAIR"><rect class="cls-1" x="78.16" y="817.11" width="369.75" height="79.24" rx="39.62"/><path class="cls-2" d="M102.07,1322.74h0a2.42,2.42,0,0,1-2.45-2.71l59.62-423.68H353.52L104.23,1321.53A2.49,2.49,0,0,1,102.07,1322.74Z"/><path class="cls-2" d="M421.64,1322.74h0a2.4,2.4,0,0,0,2.43-2.74L354.52,896.35H160.24l259.28,425.22A2.49,2.49,0,0,0,421.64,1322.74Z"/></g><g id="WOMAN"><g id="LEGS"><g id="RIGHT_FOOT" data-name="RIGHT FOOT"><path class="cls-3" d="M486.07,1163.3c13.48,1.34,35.3,4,61.33,1.53-6.68,25.78-9.75,50.43-14.61,72.33-3.14,14.1,16,33.19,21.8,47a4.69,4.69,0,0,0-.45-.21c-26.54-4.23-62.08,20.87-58.42-18.31C499.23,1226.42,490.4,1197.65,486.07,1163.3Z"/><path id="SHOE" class="cls-4" d="M496.52,1236.8c-9.13,0-25.94,16.49-24.47,42.89a207,207,0,0,0,7.68,46h106.5c5-37.73-32.09-41.8-32.09-41.8-26.55-4.23-60.75,20.87-57.09-18.3Z"/></g><g id="LEFT_FOOT" data-name="LEFT FOOT"><path class="cls-5" d="M412.07,1164.3c13.48,1.34,42.3,3,68.33.53-6.68,25.78-10.61,72.33-10.61,72.33-3.14,14.1,16,33.19,21.8,47a4.69,4.69,0,0,0-.45-.21c-26.54-4.23-62.08,20.87-58.42-18.31C436.23,1226.42,412.07,1164.3,412.07,1164.3Z"/><path id="SHOE-2" data-name="SHOE" class="cls-6" d="M431.52,1236.8c-9.13,0-23.94,16.49-22.47,42.89a207,207,0,0,0,7.68,46h106.5c5-37.73-32.09-41.8-32.09-41.8-26.55-4.23-60.75,20.87-57.09-18.3Z"/></g><g id="LEGS-2" data-name="LEGS"><path class="cls-7" d="M198.07,595.93s-91.51,110.75-85,184.61,82.37,95.7,222,94.07c0,0,4.09,110.79,76.6,290,0,0,33.65,6.5,75,0,0,0,35,3.53,61-.17,0,0,55.44-362.35,48.7-399.1-8.93-48.7-185.4-92.63-231.08-103.18L327.1,595.93S250.42,605.67,198.07,595.93Z"/><path class="cls-8" d="M300.64,705S447,743.4,464.87,790.47s18.78,378.14,18.78,378.14"/></g></g><g id="BLOUSE"><path class="cls-9" d="M374.63,457.34s-5.68,79.13-47.9,138.78c0,0-69,11.77-129,0,0,0-59.45-62.52-76.49-130.28,0,0-56.61-114.82-31-134.3s89.33-53,89.33-53l129.61,6.36c16,9.72,50.11,25.61,84.2,43.46Z"/><circle class="cls-10" cx="269.6" cy="421.72" r="9.35"/><circle class="cls-10" cx="269.6" cy="459.56" r="9.35"/><circle class="cls-10" cx="269.6" cy="497.39" r="9.35"/></g><g id="RIGHT_HAND" data-name="RIGHT HAND"><path class="cls-9" d="M393.3,328.35c34.08,17.86,134.36,247.7,92.63,272-86.66,50.53-111.3-143-111.3-143Z"/><path class="cls-3" d="M449.47,607.52c11.7,5,41.89-4.21,75.44-26.19s-4.51-36.49-4.51-36.49-44.6-17.9-71.81-5S427.06,597.87,449.47,607.52Z"/><polygon class="cls-11" points="630.58 495.39 447.4 495.39 246.4 626.96 429.57 626.96 630.58 495.39"/><path class="cls-5" d="M562.85,549.67c0-4.78-30.38-32.9-42-22.28-4.87,4.44-5.15,42.57-4.7,49.45C517.57,598.74,562.6,574.19,562.85,549.67Z"/></g><g id="LEFT_HAND" data-name="LEFT HAND"><path class="cls-9" d="M90.16,331.54c-10.41,8.26-120.93,176.52-81.82,254C52.46,673,231.7,600.38,231.7,600.38s-22.74-7-8.13-36.22c0,0-74.16-39.46-133.81-27.69,0,0,46.26-76.7,51.13-106.73S127.5,301.92,90.16,331.54Z"/><line class="cls-12" x1="270.44" y1="512.96" x2="303.1" y2="585.91"/><g id="ARM"><path class="cls-5" d="M223.62,561.82s32.87-18.74,46-11.72c14.39,7.68,31.65,32,33.23,36.09s1.13,8.34.88,12.72-30,4.13-35.72,3.8-36.42,3.31-41.78-1.94C206.56,581.51,223.62,561.82,223.62,561.82Z"/><path class="cls-3" d="M268,602.71c5.76.33,32.06.66,35.41-2.46,6.65-6.17,2.84-15.39-.49-19-3.05-3.32-19.28-23.47-33.31-31.12,0,0,16.27,28.31-1.61,52.61"/></g></g><g id="HEAD"><g id="HAIR"><path class="cls-6" d="M213.93,67.77s-14.61-23.54,0-35.71S234.55.13,261,0c27.32-.13,38.22,21.17,50.73,19.07,17-2.85,28.92-8.33,50.51,3.06,17.28,9.12,18,43.31,35.52,41.58,13.94-1.37,29.42-.49,37.33,15,6,11.73-.4,43.42,8.52,51.94s30,11.3,31.66,33.27c2.2,29.69-28.8,34.06-20.7,57.63,10.66,31-4.38,50.46-30.84,54-18.61,2.47-51.31-25.2-63.3-6.09-10.23,16.29-31.66,23.54-58,13s-42.61-7.31-58.84-.41-36.12,16.63-49.51,4.86-29.55-12.1-47.38-4.73c-24.74,10.23-51.29-6.59-48-28.94,2.73-18.47-22.62-20.8-25.56-41.8-3.84-27.43,36.52-34.49,24.75-46.26S86.54,119,121.41,114.44c33.08-4.3,26-24.91,35.33-39C164.61,63.66,189.18,48.7,213.93,67.77Z"/><path class="cls-13" d="M83.72,158.72c-11-12.46-7.49-50.8,27.59-53.19,33.28-2.26,27.46-23.27,37.65-36.72C157.54,57.5,186.3,44,213.52,67.62"/></g><g id="NECK"><path class="cls-5" d="M218.65,168.93c-.25,21,1.06,78.91-39.16,109.6,0,0,72.22,36.27,88.52,116.62,0,0,11.47-84.69,41.09-110.26,0,0-35.1-19.9-27.39-116Z"/><path class="cls-3" d="M288.32,252.15c-5,4.52-10.64,7.1-16.76,7.1-25.34,0-50.57-38.6-53-79.87.08-4.06.08-7.6.12-10.45h63.06C278.57,208,282.52,234.49,288.32,252.15Z"/></g><path id="HEAD-2" data-name="HEAD" class="cls-5" d="M216.37,149.93c.28-10.56,4-65.74,48.69-63.71S317,133.29,313,169.41s-26,60.46-41.39,58.84S215.15,194.57,216.37,149.93Z"/></g></g></g></g></g></g></svg><svg viewBox="0 0 1149.9 1351.15" height="1351.15" width="1149.9" x="1556.21"><g transform="matrix(1 0 0 1 0 0)"><defs><style>.cls-1,.cls-13{fill:none;}.cls-1,.cls-13,.cls-14,.cls-2,.cls-3{stroke:#d8baa3;stroke-miterlimit:10;stroke-width:6px;}.cls-1,.cls-2,.cls-3{stroke-linecap:round;}.cls-12,.cls-14,.cls-2{fill:#fff;}.cls-3{fill:#f0e1d4;}.cls-4{fill:#374486;}.cls-5{fill:#fab6ad;}.cls-6{fill:#3f4d90;}.cls-7{fill:#383c4d;}.cls-8{fill:#ffb000;}.cls-9{fill:#41465a;}.cls-10{fill:#49549a;}.cls-11{fill:#ffcfc9;}</style></defs><g id="Layer_2" data-name="Layer 2"><g id="Слой_1" data-name="Слой 1"><g id="_3" data-name="3"><g id="CHAIR"><path class="cls-1" d="M313.08,899.61l157.77,170.12a74.16,74.16,0,0,1,28.5,58.43V1307.1a41.05,41.05,0,0,1-41.05,41.05H253.08"/><path class="cls-2" d="M498.93,872.61h0a27,27,0,0,1-27,27H82.08A79.09,79.09,0,0,1,3,820.53V511.12a53.94,53.94,0,0,1,54-53.95H257.17A36.82,36.82,0,0,1,294,494V766.54a79.07,79.07,0,0,0,79.07,79.07h98.86A27,27,0,0,1,498.93,872.61Z"/><path class="cls-3" d="M497.86,880.15a27,27,0,0,1-25.93,19.46H82.08A79.09,79.09,0,0,1,3,820.53V511.12A54,54,0,0,1,32.52,463,53.73,53.73,0,0,0,24,492.12V813.64a67,67,0,0,0,67,67h402A25.91,25.91,0,0,0,497.86,880.15Z"/><path class="cls-1" d="M295,660.89H369A129.77,129.77,0,0,1,498.72,790.66v90"/><path class="cls-1" d="M142.08,899.61l157.77,170.12a74.16,74.16,0,0,1,28.5,58.43V1307.1a41.05,41.05,0,0,1-41.05,41.05H82.08"/></g><g id="CHARACTER"><g id="RIGHT_HAND" data-name="RIGHT HAND"><path id="HAND" class="cls-4" d="M316.59,251.56s73.88-11,118.27,86.06c38.88,85,67.87,164.27,67.87,164.27s59.92,33.51,160.7,69.38v48.1s-153.71,8.93-205,0c-37.71-6.56-141.77-146.14-149-240.82S316.59,251.56,316.59,251.56Z"/><path id="ARM" class="cls-5" d="M643.21,618.9c-5.69-1.15-1.54-18.84,1.8-29.75,1.85-6,6.27-9.08,12.16-11.67,11.72-5.18,32-8.2,43.43-5.7,16.78,3.67,27.56,11.14,38,23.35,3,3.49,17.75,20.28,17.75,24.76Z"/></g><path id="TORSO" class="cls-6" d="M245.84,212.51c-63.7,6.56-186.67,83.9-166.32,367.89C92.52,762,211.75,853,226.16,846.82S485.08,720.13,429.07,655.3c-53.59-62-36.15-109.44-27.72-193.4s21.1-175.33-47-206.95C244,203.74,262.87,210.75,245.84,212.51Z"/><g id="LEGS"><g id="RIGHT_LEG" data-name="RIGHT LEG"><g id="SHOES"><path class="cls-7" d="M756.3,1346.83H582.12c-.18-2.78-.23-5.42-.19-8H756.5A40.68,40.68,0,0,1,756.3,1346.83Z"/><path class="cls-8" d="M599.87,1265.55c.62,19.82-17.74,32.37-17.74,73.32H756.3s2.53-34.35-32.3-42.27-66.5-18.5-69.67-31Z"/></g><g id="PANT"><path class="cls-7" d="M412.56,643.28S678.4,625.94,743,705.19s-60.8,391.1-73.47,562.83c0,0-63.61,6.6-89.44,0s-48.31-339.37,16.76-419.94c0,0-237.42,59.35-333.87-15.51S372.42,644.68,412.56,643.28Z"/></g></g><g id="LEFT_LEG" data-name="LEFT LEG"><g id="SHOE"><path class="cls-9" d="M1149.9,1071.84l-138.16,110.59c-2-2.49-3.72-4.93-5.31-7.3L1144.05,1065A39.69,39.69,0,0,1,1149.9,1071.84Z"/><path class="cls-8" d="M977.29,1106c12.06,15.32,4.82,36.94,28.72,69.42l138.17-110.58s-18-28.86-50.3-13-63.55,27.56-73.39,19.61Z"/></g><g id="PANT-2" data-name="PANT"><path class="cls-9" d="M218.76,840.53c4,22.37,220.23,86.58,460.9-71.93,0,0,37.34,209.08,280.55,347.78,0,0,53.55-23.8,68.11-55.84,0,0-171.57-219.29-232.66-397C770,589,447.26,628,400.08,643.28S201,740.85,218.76,840.53Z"/></g></g></g><g id="LEFT_HAND" data-name="LEFT HAND"><path id="HAND-2" data-name="HAND" class="cls-10" d="M227.31,285.17C283,303.67,361.38,468.46,361.38,468.46s87.72,8.41,220.48,64c0,0,3.06,28.89-14.43,52.56,0,0-146,18.92-221.94,11.15C319.81,593.52,222.5,520.73,169,420,121.16,329.9,159.28,262.58,227.31,285.17Z"/><g id="ARM-2" data-name="ARM"><path class="cls-11" d="M580.83,533.38s37-19.54,54.33-15.63,38.21,19.54,40.38,23.88,17.37,25.62,17.37,30.39-49.12,3-56,3-52.33.73-61.1-1.09S580.83,533.38,580.83,533.38Z"/><path class="cls-5" d="M636.87,575.06c6.92,0,56,1.74,56-3s-15.2-26-17.37-30.39-23-20-40.38-23.88c0,0,21.44,29.77,1.71,57.31"/></g></g><g id="HEAD"><path class="cls-11" d="M300.37,122.5c1.11,8.64-18.16,52.1-52.54,85.89-30.17,29.63,99.6,52.56,103,51.81s18.55-46.38,21.66-57.07S300.37,122.5,300.37,122.5Z"/><path class="cls-5" d="M372.48,203.13c-1.34,4.61-6.7,19.67-12.63,35.37-14.32-6.93-31.09-20.51-44.21-46.36-14.21-28-12.44-56.61-14.14-64a8.44,8.44,0,0,1,.64-4C313.46,134.79,375.3,193.41,372.48,203.13Z"/><path class="cls-11" d="M412.35,77.82c5.41,21.55,10.17,57.68,2.81,75.22s-20.35,49.77-25.44,51.46-61.08-5.65-74.08-30-13.58-44.68-15.27-52,28.84-66.74,67.86-65.61S410.78,71.57,412.35,77.82Z"/><path class="cls-8" d="M436,67.13c-10.37,4.25-2.51,16.28-22,18.08s-24-22.09-24-22.09S387.78,72.67,378,75.93c0,0,5.21-10.12-2.26-14.58s-12.06,1.51-12.06,1.51-6.51-3.26-10,4.52,2.8,12.44,11,13.33c0,0,.75,11.56-17.59,13.32s-22.12-9.55-22.12-9.55-3-2.77-4.28,5.28,5,21.11-7.79,31.42c-5.11,4.11-8,5.74-9.53,6.21,6.45,5.58,3.33,22.52-11.29,29.43-19.85,9.39-34.41,2.45-36.22-11.27-1.63-12.39,6.27-7.53,4.25-17.08,0,0-12.93,9.46-21.3-4.32-6.84-11.26,5.12-18.31,5.12-18.31S235.41,94.16,242.49,86c8-9.31,20.51-3.28,18.68-9.06S254.56,57.58,262.34,50s20.12-4.53,21.87-8.55-.74-10-8.78-6.51a17.92,17.92,0,0,1,8-12.84c7.13-4.81,17.7-3.69,25-1.55C309.67,14,312.76,6,320.66,2.28,333.75-3.85,343.09,3.62,348.2,10a12.21,12.21,0,0,1,10.4-8.25C374.18-.51,387,3.54,390,16.1c3.17,13.23,26.31-17.27,37.2,8.8,2.23,5.33-3.59,9.54,3,13.83,3.73,2.43,8.52-5.5,4.79-8.28A22.61,22.61,0,0,1,446,40.17C448,43.69,452.71,60.3,436,67.13Z"/></g></g><path id="CHAIR-2" data-name="CHAIR" class="cls-1" d="M24,660.89h90A129.77,129.77,0,0,1,243.72,790.66v90"/><g id="TABLE"><path class="cls-12" d="M1025.65,605.06H509.92a14.5,14.5,0,0,0-14.5,14.5h0a14.5,14.5,0,0,0,14.5,14.5h515.73Z"/><path class="cls-13" d="M1025.65,605.06H509.92a14.5,14.5,0,0,0-14.5,14.5h0a14.5,14.5,0,0,0,14.5,14.5h515.73"/><path class="cls-1" d="M802.36,1347.15,885.62,649.6c2.64-14.87,23.8-15.34,27.09-.6l103.72,694.24"/></g><g id="LAPTOP"><rect class="cls-14" x="563.87" y="578.22" width="416.28" height="25.56" rx="9.78"/><path class="cls-14" d="M954.25,577.78H663.47c-7.52,0-12.57-7.23-9.54-13.67l82.14-174.72c4.66-9.9,15.13-16.29,26.69-16.29h290.79c7.52,0,12.56,7.23,9.53,13.67L980.94,561.48C976.29,571.38,965.82,577.78,954.25,577.78Z"/></g></g></g></g></g></svg><svg viewBox="0 0 727.2 1263.17" height="1263.17" width="727.2" x="2706.1099"><g transform="matrix(1 0 0 1 0 0)"><defs><style>.cls-1,.cls-14,.cls-15,.cls-16,.cls-18,.cls-4{fill:none;}.cls-1,.cls-19,.cls-2,.cls-3,.cls-4{stroke:#6562cf;}.cls-1,.cls-14,.cls-16,.cls-18{stroke-linecap:round;}.cls-1,.cls-14,.cls-15,.cls-16,.cls-18,.cls-19,.cls-2,.cls-3,.cls-4{stroke-miterlimit:10;}.cls-1,.cls-19{stroke-width:6px;}.cls-17,.cls-19,.cls-2{fill:#fff;}.cls-16,.cls-18,.cls-2,.cls-3,.cls-4{stroke-width:5px;}.cls-3{fill:#d1d1ff;}.cls-5{fill:#6562cf;}.cls-6{fill:#b65a18;}.cls-7{fill:#8382d8;}.cls-8{fill:#333b63;}.cls-9{fill:#c36f0b;}.cls-10{fill:#e5e6ff;}.cls-11{fill:#3f4d79;}.cls-12{fill:#ffb000;}.cls-13{fill:#ffc033;}.cls-14{stroke:#a55f2b;}.cls-14,.cls-15{stroke-width:4px;}.cls-15{stroke:#3f4d79;}.cls-16{stroke:#ffb000;}.cls-18{stroke:#fff;}</style></defs><g id="Layer_2" data-name="Layer 2"><g id="Слой_1" data-name="Слой 1"><g id="_4" data-name="4"><g id="CHAIR"><path class="cls-1" d="M531.54,870.67v172.69a153.26,153.26,0,0,0,72.8,130.44l63.7,39.29"/><path class="cls-1" d="M497,870.67v172.69a153.27,153.27,0,0,1-72.79,130.44l-63.71,39.29"/><path class="cls-2" d="M493.45,838.64H531.9a32,32,0,0,1,32,32v0a0,0,0,0,1,0,0H461.42a0,0,0,0,1,0,0v0A32,32,0,0,1,493.45,838.64Z" transform="translate(1025.35 1709.3) rotate(-180)"/><polygon class="cls-2" points="573.68 783.36 604.68 783.36 616.76 716.03 585.76 716.03 573.68 783.36"/><path class="cls-3" d="M334.77,795.7v26.09c0,3.45,9.45,6.68,25.88,9.43,31.56,5.29,88.86,8.83,154.32,8.83,99.51,0,180.19-8.18,180.19-18.26V795.7c0,5.1-20.72,9.73-54.11,13C608.55,812,564.05,814,515,814s-93.59-2-126.09-5.22c-10.84-1.08-20.34-2.29-28.23-3.61C344.22,802.38,334.77,799.15,334.77,795.7Z"/><path class="cls-2" d="M334.77,795.7c0,3.45,9.45,6.68,25.88,9.43,7.89,1.32,17.39,2.53,28.23,3.61C421.38,812,465.88,814,515,814s93.58-2,126.08-5.22c33.39-3.31,54.11-7.94,54.11-13,0-10.09-80.68-18.28-180.19-18.28-79.12,0-146.33,5.17-170.56,12.37C338.16,791.64,334.77,793.63,334.77,795.7Z"/><path class="cls-3" d="M589.11,718.24h35.52c31.41,0,64.88-40.23,74.76-89.87l22.54-113.26c9.88-49.64-7.57-89.87-39-89.87H647.43c-31.4,0-64.87,40.23-74.75,89.87L550.13,628.37C540.25,678,557.7,718.24,589.11,718.24Z"/><path class="cls-2" d="M568.11,718.24h35.52c31.41,0,64.88-40.23,74.76-89.87l22.54-113.26c9.88-49.64-7.57-89.87-39-89.87H626.43c-31.4,0-64.87,40.23-74.75,89.87L529.13,628.37C519.25,678,536.7,718.24,568.11,718.24Z"/><circle class="cls-3" cx="670.89" cy="1232.14" r="28.53"/><circle class="cls-3" cx="359.89" cy="1232.14" r="28.53"/><path class="cls-4" d="M472.33,1126.81s36.93-27.11,83.93,0"/></g><g id="WOMAN"><g id="LEGS"><g id="LEFT"><path class="cls-5" d="M609,712.73C558,785,353.72,740.8,353.72,740.8c-1.35-28.08.7-101.76-49.13-143.78l115.21,3c91,8.51,158.4-9.68,179.37-19.06C617.17,607.14,645,661.7,609,712.73Z"/><path class="cls-6" d="M274.29,601.47s-141,8.59-153.07,38.69C83.5,734,229.78,1029.63,239,1102.3c7.72,61.14-42.81,93.84-42.81,93.84s22.74,15.63,54.65,7c6.83-1.85,13.16-10.43,25.91-20.78,9.48-7.69,32.83-21.53,32.43-33.21-.66-19.24-28.7-34.09-27.91-46.1s24.11-172.46,16-241.45c-9-77-67-119.08-67-119.08l123.9-1.5S334.78,639.89,274.29,601.47Z"/><path class="cls-7" d="M356.12,740.87s10.62-97.34-54-145.79c-5.11-3.83-19.37.85-27.57,2.47-3,.6-3.79,4-2,6.53,42.83,61.57,43.7,114.37,40.75,145.57Z"/><path class="cls-8" d="M307.5,1134a23,23,0,0,1-2,30.37l-44.65,44.09s-79.87,1.49-84.56,0-.46-14.83,12.54-18.73,30.77-25.52,30.77-25.52,14.19-15.21,37.34,31.89l15.49-13.61s-3.66-40.14,2.39-60.94H239a6.22,6.22,0,0,1-6.27-6.21,6,6,0,0,1,6-5.84h44.42a5.06,5.06,0,0,1,3.77,1.68Z"/></g><g id="RIGHT"><path class="cls-7" d="M639,743.73c-21.67,62.68-199.89,54.41-230.27,52.2a.57.57,0,0,0,0-.13c-1.35-28.08-9.57-116.68-59.4-158.7l66.14-16,7.42-20.79c88.91,7.77,154.72-9.84,175.89-19.16C613.38,600.57,663.14,673.87,639,743.73Z"/><path class="cls-9" d="M305.29,646.47s-146.35,28.2-152.66,71S239,1091.5,229,1152.3s-75.81,102.84-75.81,102.84,54.46,10.39,83.65,0c6.66-2.38,18.75-18.4,29.91-24.78,10.6-6.06,32.83-16.53,32.43-28.21-.66-19.24-28.7-35.09-27.91-47.1s45.11-184.46,37-253.45c-9-77-37-109.08-37-109.08l81.9-1.5S368.51,704.13,305.29,646.47Z"/><path class="cls-10" d="M360.06,800.53l40.35,4a8.31,8.31,0,0,0,8.31-8.73c-1.36-28.27-9.68-117.91-60.44-159.58a17.06,17.06,0,0,0-15-3.32l-34,8.75S368,688.59,351.85,790.86A8.34,8.34,0,0,0,360.06,800.53Z"/><path class="cls-11" d="M296.4,1184.45a23.43,23.43,0,0,1-2.06,31l-45.55,45s-91.68,1.52-96.47,0-.47-15.13,12.8-19.11,31.39-26,31.39-26,24.68-15.52,48.29,32.53l15.81-13.89s-3.74-41,2.43-62.17H226.48a6.34,6.34,0,0,1-6.4-6.33,6.15,6.15,0,0,1,6.14-6h45.31a5.17,5.17,0,0,1,3.85,1.71Z"/></g></g><path id="T-SHIRT" class="cls-12" d="M519.25,207.52c13.81,7.27,46.56,23.82,67.09,59.1s-24.47,163.6-23.87,201.88,36.89,104.58,43.21,107.58-74.2,36-193,23.27c0,0,9.4-53.54,2.54-76.81s-38.64-90.77-38.64-90.77-36.11-27.46-28.41-49.24c5.13-14.51,59.23-104.12,59.23-104.12Z"/><g id="HAND"><path class="cls-13" d="M639.28,399s-36.73,43.26-103.73,43.26c0,0-53.65-172.74,7.74-194.55S639.28,399,639.28,399Z"/><path class="cls-9" d="M643.59,512.66c-3.13,28.9-238.18,67.9-238.18,67.9l-.07-.14c-4.27,2.19-19.93,9.45-30.48,4.08-12.31-6.29-23.19-9-30.72-7.35-9.3,2-19.89,9.18-25.19,7.59a52.16,52.16,0,0,1-17.69-9.09,234.57,234.57,0,0,1,16.38-17.09c-5.29,1.66-12.85,6-16.76,7.31-6.27,2.16-8.65-3.92-8.65-3.92s15.06-10.62,19.16-13c7.16-4.06,23.26-8,27.68-8,7.73.2,49.15,5.43,69.65,9.14,33.67-17.59,119.26-61.72,152.48-73l-11.3-36.44s47.68-4.65,81.19-35C631.09,405.74,646.82,482.77,643.59,512.66Z"/><path class="cls-14" d="M308,577.62s22.62-19.55,27.59-20c8.76-.84,20.2-2,20.2-2"/><path class="cls-14" d="M315.36,581.88s20-16,25-16.49c8.76-.84,20.2-2,20.2-2"/><path class="cls-6" d="M636.4,434.71c-14.75,8.66-41.43,20.17-83.2,16.75l-3.31-10.69s47.69-4.64,81.19-35C631.08,405.74,633.6,418,636.4,434.71Z"/></g><g id="HEAD"><g id="HAIR"><path class="cls-11" d="M561.44,106.22S553.72,213.76,327.69,243c0,0-29.49-23.95-12-48.12s36.85-33.06,20.33-49.44-39.6-50.33-6.26-81.62S439.31-8.94,494.67,21.35,482.14,107.18,561.44,106.22Z"/><path class="cls-15" d="M316.73,243.06s-29.49-23.95-12-48.11,34.92-33.06,18.39-49.44-33.59-55.73,4.06-81.67c43.72-30.12,89.67-43.81,143.69-23"/></g><g id="NECK"><path class="cls-9" d="M461,113.71s9.19,64.7,58.08,93.8c0,0-32,64.13-113.62,74.5,0,0,23.3-42.41,23.24-55.92S418,173.5,418,173.5Z"/><path class="cls-6" d="M463.52,137.83c.82,30.19-20.32,53.8-38.16,66.25C422.24,189.16,418,173.5,418,173.5l43-59.79a121,121,0,0,0,2.67,12.41C463.46,129.68,463.4,133.6,463.52,137.83Z"/></g><path id="HEAD-2" data-name="HEAD" class="cls-9" d="M456,87.05c-16.64-19-41.75-32.44-64.61-25.1-35.15,11.3-39.82,69.51,5.31,122.35,5.35,6.26,57.29-13.34,62.55-54.94C462,107.63,456,87.05,456,87.05Z"/><g id="HEADPHONES"><path class="cls-16" d="M458,91.19,440.58,20.3C437.45,8.22,426,.66,414.12,2.89l-34.35,7.33c-11,2.08-17.26,14.46-17.21,26.12"/><rect class="cls-17" x="439.29" y="85.47" width="48.17" height="48.17" rx="22.53" transform="translate(-12.77 111.47) rotate(-13.53)"/><path class="cls-18" d="M473.36,129.86c8,24,36.43,78.24,0,140.47s-82.82,108.76-47.29,174.56c30.84,57.12,28.8,144.88-54,144.88"/></g></g></g><g id="LAPTOP"><path class="cls-19" d="M135.44,583.58H120.06A17.66,17.66,0,0,1,103.87,573L4.49,344.63a17.65,17.65,0,0,1,16.19-24.7h0Z"/><path class="cls-19" d="M452.2,608.86H148.11a25.27,25.27,0,0,1-25.27-25.28H426.92a25.28,25.28,0,0,1,25.28,25.28Z"/></g></g></g></g></g></svg></svg>