<svg id="visual" viewBox="0 0 900 600" width="900" height="600" xmlns="http://www.w3.org/2000/svg" xmlns:xlink="http://www.w3.org/1999/xlink" version="1.1">
<path d="M0 417L21.5 418C43 419 86 421 128.8 425.3C171.7 429.7 214.3 436.3 257.2 440.7C300 445 343 447 385.8 443.7C428.7 440.3 471.3 431.7 514.2 429C557 426.3 600 429.7 642.8 421.2C685.7 412.7 728.3 392.3 771.2 393.8C814 395.3 857 418.7 878.5 430.3L900 442L900 601L878.5 601C857 601 814 601 771.2 601C728.3 601 685.7 601 642.8 601C600 601 557 601 514.2 601C471.3 601 428.7 601 385.8 601C343 601 300 601 257.2 601C214.3 601 171.7 601 128.8 601C86 601 43 601 21.5 601L0 601Z" fill="#c62368"></path><path d="M0 425L21.5 422.7C43 420.3 86 415.7 128.8 411.2C171.7 406.7 214.3 402.3 257.2 409.5C300 416.7 343 435.3 385.8 447C428.7 458.7 471.3 463.3 514.2 457.8C557 452.3 600 436.7 642.8 432C685.7 427.3 728.3 433.7 771.2 441.8C814 450 857 460 878.5 465L900 470L900 601L878.5 601C857 601 814 601 771.2 601C728.3 601 685.7 601 642.8 601C600 601 557 601 514.2 601C471.3 601 428.7 601 385.8 601C343 601 300 601 257.2 601C214.3 601 171.7 601 128.8 601C86 601 43 601 21.5 601L0 601Z" fill="#d43475"></path><path d="M0 500L21.5 498.2C43 496.3 86 492.7 128.8 488.2C171.7 483.7 214.3 478.3 257.2 474.2C300 470 343 467 385.8 472.7C428.7 478.3 471.3 492.7 514.2 492.3C557 492 600 477 642.8 476.7C685.7 476.3 728.3 490.7 771.2 487.3C814 484 857 463 878.5 452.5L900 442L900 601L878.5 601C857 601 814 601 771.2 601C728.3 601 685.7 601 642.8 601C600 601 557 601 514.2 601C471.3 601 428.7 601 385.8 601C343 601 300 601 257.2 601C214.3 601 171.7 601 128.8 601C86 601 43 601 21.5 601L0 601Z" fill="#e24382"></path><path d="M0 495L21.5 495.8C43 496.7 86 498.3 128.8 501.8C171.7 505.3 214.3 510.7 257.2 511.5C300 512.3 343 508.7 385.8 506.2C428.7 503.7 471.3 502.3 514.2 503.7C557 505 600 509 642.8 514C685.7 519 728.3 525 771.2 524C814 523 857 515 878.5 511L900 507L900 601L878.5 601C857 601 814 601 771.2 601C728.3 601 685.7 601 642.8 601C600 601 557 601 514.2 601C471.3 601 428.7 601 385.8 601C343 601 300 601 257.2 601C214.3 601 171.7 601 128.8 601C86 601 43 601 21.5 601L0 601Z" fill="#f05190"></path><path d="M0 531L21.5 535.5C43 540 86 549 128.8 553.7C171.7 558.3 214.3 558.7 257.2 559.5C300 560.3 343 561.7 385.8 563.3C428.7 565 471.3 567 514.2 561.2C557 555.3 600 541.7 642.8 542.2C685.7 542.7 728.3 557.3 771.2 560.7C814 564 857 556 878.5 552L900 548L900 601L878.5 601C857 601 814 601 771.2 601C728.3 601 685.7 601 642.8 601C600 601 557 601 514.2 601C471.3 601 428.7 601 385.8 601C343 601 300 601 257.2 601C214.3 601 171.7 601 128.8 601C86 601 43 601 21.5 601L0 601Z" fill="#ff5f9e"></path></svg>
